SCREENS:
 
http://s6.ifotos.pl/img/shot0318p_nrqnqew.png 
http://s4.ifotos.pl/img/shot0307p_nrqnqea.png 
http://s4.ifotos.pl/img/shot0310p_nrqnqex.png 
http://s6.ifotos.pl/img/shot0316p_nrqnqep.png

SAMPLE:


Format                                   : AVI
Format/Info                              : Audio Video Interleave
File size                                : 695 MiB
Duration                                 : 1h 34mn
Overall bit rate                         : 1 029 Kbps
Writing application                      : VirtualDubMod 1.5.10.2 (build 2540/release)
Writing library                          : VirtualDub build 30080/release

Video
ID                                       : 0
Format                                   : MPEG-4 Visual
Format profile                           : Advanced Simple@L5
Format settings, BVOP                    : 1
Format settings, QPel                    : No
Format settings, GMC                     : No warppoints
Format settings, Matrix                  : Custom
Codec ID                                 : XVID
Codec ID/Hint                            : XviD
Duration                                 : 1h 34mn
Bit rate                                 : 891 Kbps
Width                                    : 640 pixels
Height                                   : 272 pixels
Display aspect ratio                     : 2.35:1
Frame rate                               : 25.857 fps
Color space                              : YUV
Chroma subsampling                       : 4:2:0
Bit depth                                : 8 bits
Scan type                                : Progressive
Compression mode                         : Lossy
Bits/(Pixel*Frame)                       : 0.198
Stream size                              : 602 MiB (87%)
Writing library                          : XviD 1.2.1 (UTC 2008-12-04)

Audio
ID                                       : 1
Format                                   : MPEG Audio
Codec ID                                 : 55
Codec ID/Hint                            : MP3
Duration                                 : 1h 34mn
Bit rate                                 : 128 Kbps
Channel(s)                               : 2 channels
Sampling rate                            : 44.1 KHz
Compression mode                         : Lossy
Stream size                              : 86.4 MiB (12%)
Alignment                                : Split accross interleaves
Interleave, duration                     : 39 ms (1.00 video frame)
Interleave, preload duration             : 500 ms
Release Date                             : 31-05-2013
SOURCE                                   : V- TS.RU A- youtoube (+ sync)